<svg viewBox="0 0 71 61" fill="currentColor" xmlns="http://www.w3.org/2000/svg">
<path d="M70.2983 22.3126L64.107 1.35904C63.9494 0.825443 63.4544 0.458817 62.8921 0.458817H8.10834C7.54586 0.458817 7.05103 0.825578 6.89339 1.35904L0.702143 22.3126C0.668383 22.4264 0.651367 22.5445 0.651367 22.6631V23.2649C0.651367 26.4281 2.24802 29.2279 4.68512 30.9242V55.8661C4.68512 58.6969 7.01536 61 9.8795 61H61.1209C63.985 61 66.3153 58.6969 66.3153 55.8661V30.9242C68.7523 29.2281 70.349 26.4284 70.349 23.265V22.6632C70.349 22.5445 70.332 22.4264 70.2983 22.3126ZM36.7659 2.96076H48.8257L51.1869 22.1093C51.4374 24.1409 50.7938 26.1846 49.4211 27.7167C48.0484 29.2489 46.0736 30.1276 44.0031 30.1276C40.0126 30.1276 36.7659 26.9188 36.7659 22.9748V2.96076ZM19.8133 22.1092L22.1746 2.96076H34.2345V22.9747C34.2345 26.9186 30.9878 30.1275 26.9972 30.1275C24.9266 30.1275 22.9519 29.2488 21.5792 27.7166C20.2066 26.1844 19.5629 24.1408 19.8133 22.1092ZM3.18281 23.265V22.842L9.05729 2.96076H19.6245L17.0183 24.0953C16.5943 27.5342 13.6313 30.1275 10.126 30.1275C6.29756 30.1275 3.18281 27.049 3.18281 23.265ZM61.1209 58.4981H9.8795C8.41109 58.4981 7.21643 57.3173 7.21643 55.866V32.1756C8.13379 32.469 9.11106 32.6293 10.126 32.6293C13.7023 32.6293 16.8642 30.6508 18.4745 27.691C18.8129 28.2887 19.2171 28.854 19.684 29.3754C21.5368 31.4433 24.2024 32.6293 26.9972 32.6293C30.6397 32.6293 33.8207 30.6473 35.5002 27.7188C37.1798 30.6475 40.3607 32.6293 44.0029 32.6293C46.7978 32.6293 49.4633 31.4432 51.3161 29.3754C51.7831 28.8542 52.1872 28.2888 52.5256 27.691C54.1358 30.6508 57.298 32.6293 60.8741 32.6293C61.8891 32.6293 62.8663 32.469 63.7837 32.1756V55.866H63.7839C63.784 57.3173 62.5893 58.4981 61.1209 58.4981ZM67.8176 23.265C67.8176 27.049 64.7029 30.1273 60.8741 30.1273C57.3688 30.1273 54.4058 27.534 53.9818 24.0951L51.3759 2.96076H61.9431L67.8176 22.8422V23.265Z"/>
<path d="M59.5608 45.7035H52.3849C51.6859 45.7035 51.1192 46.2636 51.1192 46.9545C51.1192 47.6454 51.6859 48.2055 52.3849 48.2055H58.1587C57.5778 50.8274 55.2096 52.7958 52.3849 52.7958C49.126 52.7958 46.4748 50.1754 46.4748 46.9545C46.4748 43.7336 49.126 41.1131 52.3849 41.1131C53.9636 41.1131 55.4477 41.7207 56.5641 42.8241C57.0585 43.3126 57.8598 43.3125 58.3542 42.8241C58.8485 42.3356 58.8485 41.5435 58.3542 41.0548C56.7597 39.479 54.6399 38.6112 52.3849 38.6112C47.7302 38.6112 43.9434 42.354 43.9434 46.9545C43.9434 51.555 47.7302 55.2977 52.3849 55.2977C57.0397 55.2977 60.8264 51.555 60.8264 46.9545C60.8265 46.2636 60.2598 45.7035 59.5608 45.7035Z"/>
</svg>
