<svg viewBox="0 0 30 30" fill="currentColor" xmlns="http://www.w3.org/2000/svg">
<path d="M28.764 27.1643L21.6632 20.0638C23.4282 17.9415 24.4915 15.2159 24.4915 12.2463C24.4916 5.49362 18.998 0 12.2456 0C5.49332 0 0 5.49362 0 12.2462C0 18.9983 5.49332 24.4916 12.2456 24.4916C15.2153 24.4916 17.9409 23.4283 20.0633 21.6635L27.1643 28.7642C27.3851 28.985 27.6747 29.0954 27.9642 29.0954C28.2538 29.0954 28.5432 28.985 28.764 28.764C29.2059 28.3222 29.2059 27.6059 28.764 27.1643ZM2.26242 12.2462C2.26242 6.74112 6.74082 2.26242 12.2456 2.26242C17.7505 2.26242 22.2291 6.74112 22.2291 12.2462C22.2291 17.7508 17.7505 22.2292 12.2456 22.2292C6.74082 22.2292 2.26242 17.7508 2.26242 12.2462Z"/>
<path d="M17.7292 14.5138L16.2921 15.9511L15.8016 15.4605L16.7194 14.5424C17.0728 14.1889 17.0727 13.6159 16.7193 13.2626C16.3657 12.9094 15.7927 12.9092 15.4395 13.2628L14.5218 14.1807L12.8222 12.4812C13.1544 11.923 13.332 11.2839 13.3321 10.6174C13.3321 9.6414 12.952 8.72391 12.262 8.03387C11.5719 7.34383 10.6546 6.96375 9.67875 6.96375C8.70289 6.96375 7.78541 7.34383 7.09567 8.03387C6.40548 8.72391 6.02539 9.6414 6.02539 10.6176C6.02539 11.5936 6.40563 12.5111 7.09552 13.2008C7.78541 13.8908 8.70274 14.2711 9.6786 14.2711H9.67875C10.3451 14.2711 10.9843 14.0935 11.5424 13.7613L15.6525 17.871C15.8292 18.0477 16.0607 18.136 16.2924 18.136C16.3503 18.136 16.4083 18.1306 16.4653 18.1195C16.6365 18.0864 16.7998 18.0035 16.9324 17.871L19.0094 15.7937C19.3628 15.4401 19.3627 14.8671 19.0093 14.5139C18.6556 14.1604 18.0826 14.1602 17.7292 14.5138ZM9.67845 12.461C9.18615 12.461 8.72326 12.2693 8.37514 11.9209C8.02688 11.5726 7.83518 11.1099 7.83518 10.6173C7.83518 10.1248 8.02688 9.66191 8.37529 9.3135C8.72341 8.96524 9.1863 8.77353 9.6786 8.77353C10.1709 8.77353 10.6338 8.96524 10.9821 9.31335C11.3303 9.66161 11.5222 10.1247 11.5222 10.6171C11.5222 11.1097 11.3303 11.5726 10.9819 11.921C10.6336 12.2693 10.1708 12.461 9.67845 12.461Z"/>
</svg>
