<svg viewBox="0 0 20 30" fill="currentColor" xmlns="http://www.w3.org/2000/svg">
<path d="M9.99992 14.3703C12.7116 14.3703 14.9178 12.1644 14.9178 9.45307C14.9178 6.74171 12.7116 4.53589 9.99992 4.53589C7.2882 4.53589 5.08203 6.74171 5.08203 9.45307C5.08203 12.1644 7.2882 14.3703 9.99992 14.3703ZM9.99992 6.29347C11.7424 6.29347 13.16 7.71091 13.16 9.45307C13.16 11.1953 11.7424 12.6127 9.99992 12.6127C8.2574 12.6127 6.83984 11.1953 6.83984 9.45307C6.83984 7.71091 8.25746 6.29347 9.99992 6.29347Z"/>
<path d="M4.64533 18.2889C5.97745 20.0923 5.44226 19.391 9.27927 24.8692C9.62802 25.369 10.3696 25.3714 10.7204 24.8699C14.5747 19.3657 14.0444 20.0629 15.3549 18.2889C16.6823 16.4917 18.055 14.6333 18.8073 12.4556C19.896 9.30322 19.4254 6.1841 17.4822 3.67277C17.4822 3.67277 17.4822 3.67271 17.4821 3.67271C15.7021 1.37297 12.9051 0 10.0001 0C7.09507 0 4.29804 1.37297 2.51802 3.67283C0.574876 6.18416 0.104251 9.30334 1.19304 12.4557C1.94515 14.6334 3.31788 16.4917 4.64533 18.2889ZM3.90822 4.74838C5.35771 2.87566 7.63507 1.75758 10.0001 1.75758C12.3651 1.75758 14.6425 2.87566 16.092 4.74838L16.0918 4.74832C17.6602 6.7752 18.0344 9.30867 17.1457 11.882C16.4813 13.8055 15.1898 15.5539 13.9409 17.2447C12.9684 18.5612 13.2595 18.1585 10.0001 22.8306C6.74409 18.1632 7.03144 18.5607 6.05931 17.2447C4.81038 15.5539 3.51892 13.8054 2.85452 11.882C1.96577 9.30861 2.33995 6.7752 3.90822 4.74838Z"/>
<path d="M5.36758 22.0996C5.10836 21.6893 4.56555 21.5667 4.15516 21.826L1.65614 23.4043C1.11098 23.7486 1.11045 24.5456 1.65614 24.8902L9.53114 29.8642C9.81784 30.0453 10.1832 30.0452 10.4699 29.8642L18.3449 24.8902C18.8901 24.5459 18.8906 23.749 18.3449 23.4043L15.8458 21.826C15.4353 21.5667 14.8926 21.6893 14.6334 22.0996C14.3741 22.5099 14.4967 23.0527 14.9071 23.3119L16.2298 24.1473L10.0005 28.0817L3.77119 24.1473L5.09389 23.3119C5.50428 23.0527 5.6268 22.51 5.36758 22.0996Z"/>
</svg>
