<svg width="25" height="25" viewBox="0 0 25 25" fill="none" xmlns="http://www.w3.org/2000/svg">
<path d="M21.3717 19.5265V16.7686C21.3829 16.3178 21.2277 15.8786 20.9355 15.5345C20.1118 14.5642 17.2865 13.9435 16.1666 14.1818C15.2935 14.3677 14.6828 15.2442 14.0857 15.8402C11.7796 14.5315 9.87023 12.6259 8.55897 10.3244C9.1561 9.72847 10.0344 9.11891 10.2206 8.24762C10.459 7.13165 9.83924 4.32441 8.87561 3.49733C8.53667 3.20642 8.1033 3.04843 7.65628 3.05282H4.89294C3.84004 3.05381 2.96406 3.99817 3.05992 5.05688C3.05273 14.1818 10.177 21.3723 19.3636 21.3651C20.428 21.4611 21.3759 20.5808 21.3717 19.5265Z" fill="white"/>
<path d="M14.7568 6.61487C15.5071 6.76124 16.2518 7.09211 16.7923 7.63262C17.3328 8.17312 17.6637 8.91788 17.8101 9.66812M15.2657 3.05273C16.8244 3.2259 18.227 3.97998 19.3367 5.08824C20.4464 6.1965 21.1971 7.60075 21.3722 9.15925M21.3717 16.7686V19.5265C21.3759 20.5808 20.428 21.4611 19.3636 21.3651C10.177 21.3723 3.05273 14.1818 3.05992 5.05688C2.96406 3.99817 3.84004 3.05381 4.89294 3.05282H7.65628C8.1033 3.04843 8.53667 3.20642 8.87561 3.49733C9.83924 4.32441 10.459 7.13165 10.2206 8.24762C10.0344 9.11891 9.1561 9.72847 8.55897 10.3244C9.87023 12.6259 11.7796 14.5315 14.0857 15.8402C14.6828 15.2442 15.2935 14.3677 16.1666 14.1818C17.2865 13.9435 20.1118 14.5642 20.9355 15.5345C21.2277 15.8786 21.3829 16.3178 21.3717 16.7686Z" stroke="#787878" stroke-width="2.0355" stroke-linecap="round" stroke-linejoin="round"/>
</svg>
