<svg viewBox="0 0 15 14" fill="currentColor" xmlns="http://www.w3.org/2000/svg">
<path d="M13.2193 0C12.4391 0 11.8044 0.666436 11.8044 1.48566C11.8044 1.93638 11.9968 2.34054 12.2995 2.61323L9.68741 7.20196C9.53956 7.14677 9.38058 7.11649 9.21492 7.11649C9.07967 7.11649 8.94899 7.13696 8.82502 7.17429L6.59288 4.6607C6.67871 4.4692 6.72696 4.25561 6.72696 4.03031C6.72696 3.21112 6.09223 2.54465 5.31204 2.54465C4.53186 2.54465 3.89713 3.21109 3.89713 4.03031C3.89713 4.45137 4.06511 4.8318 4.33404 5.10238L1.61548 10.433C1.54988 10.4232 1.48297 10.4178 1.41486 10.4178C0.634759 10.4178 0 11.0843 0 11.9035C0 12.7227 0.634759 13.3892 1.41492 13.3892C2.19507 13.3892 2.82983 12.7227 2.82983 11.9035C2.82983 11.4933 2.67069 11.1215 2.4139 10.8524L5.14106 5.50472C5.19717 5.51183 5.25417 5.51597 5.31204 5.51597C5.55231 5.51597 5.77871 5.45259 5.97707 5.34119L8.08265 7.71225C7.90527 7.96047 7.8 8.26863 7.8 8.60215C7.8 9.42135 8.43473 10.0878 9.21492 10.0878C9.9951 10.0878 10.6298 9.42138 10.6298 8.60215C10.6298 8.3002 10.5434 8.01915 10.3954 7.78446L13.1368 2.96865C13.1641 2.9703 13.1916 2.97138 13.2193 2.97138C13.9995 2.97138 14.6342 2.30495 14.6342 1.48572C14.6342 0.666496 13.9995 0 13.2193 0ZM1.41492 12.4522C1.12675 12.4522 0.892343 12.2061 0.892343 11.9035C0.892343 11.6009 1.12678 11.3548 1.41492 11.3548C1.70306 11.3548 1.93749 11.6009 1.93749 11.9035C1.93749 12.2061 1.70308 12.4522 1.41492 12.4522ZM5.31204 4.57901C5.02388 4.57901 4.78947 4.33289 4.78947 4.03031C4.78947 3.72773 5.02391 3.48161 5.31204 3.48161C5.60018 3.48161 5.83462 3.72773 5.83462 4.03031C5.83462 4.33289 5.60018 4.57901 5.31204 4.57901ZM9.21492 9.15085C8.92675 9.15085 8.69235 8.9047 8.69235 8.60212C8.69235 8.29954 8.92678 8.05342 9.21492 8.05342C9.50306 8.05342 9.73749 8.29954 9.73749 8.60212C9.73749 8.9047 9.50303 9.15085 9.21492 9.15085ZM13.2193 2.03439C12.9311 2.03439 12.6967 1.78827 12.6967 1.48569C12.6967 1.18312 12.9311 0.936991 13.2193 0.936991C13.5074 0.936991 13.7419 1.18309 13.7419 1.48566C13.7419 1.78824 13.5074 2.03439 13.2193 2.03439Z"/>
</svg>
